<svg width="47" height="45" viewBox="0 0 47 45" fill="none" xmlns="http://www.w3.org/2000/svg">
<path d="M23.7105 22.5C26.7315 22.5 29.6287 21.3147 31.7648 19.205C33.901 17.0952 35.101 14.2337 35.101 11.25C35.101 8.26631 33.901 5.40483 31.7648 3.29505C29.6287 1.18526 26.7315 0 23.7105 0C20.6896 0 17.7924 1.18526 15.6562 3.29505C13.5201 5.40483 12.3201 8.26631 12.3201 11.25C12.3201 14.2337 13.5201 17.0952 15.6562 19.205C17.7924 21.3147 20.6896 22.5 23.7105 22.5ZM31.3042 11.25C31.3042 13.2391 30.5042 15.1468 29.0801 16.5533C27.656 17.9598 25.7245 18.75 23.7105 18.75C21.6966 18.75 19.7651 17.9598 18.341 16.5533C16.9169 15.1468 16.1169 13.2391 16.1169 11.25C16.1169 9.26088 16.9169 7.35322 18.341 5.9467C19.7651 4.54018 21.6966 3.75 23.7105 3.75C25.7245 3.75 27.656 4.54018 29.0801 5.9467C30.5042 7.35322 31.3042 9.26088 31.3042 11.25ZM46.4915 41.25C46.4915 45 42.6947 45 42.6947 45H4.72639C4.72639 45 0.929565 45 0.929565 41.25C0.929565 37.5 4.72639 26.25 23.7105 26.25C42.6947 26.25 46.4915 37.5 46.4915 41.25ZM42.6947 41.235C42.6909 40.3125 42.11 37.5375 39.5357 34.995C37.0602 32.55 32.4015 30 23.7105 30C15.0158 30 10.3609 32.55 7.88536 34.995C5.31111 37.5375 4.73399 40.3125 4.72639 41.235H42.6947Z" fill="black"/>
</svg>
